# AST/ASF file generated using VICON BodyLanguage
# -----------------------------------------------
:version 1.10
:name VICON
:units
  mass 1.0
  length 0.45
  angle deg
:documentation
   .ast/.asf automatically generated from VICON data using
   VICON BodyBuilder and BodyLanguage model FoxedUp or BRILLIANT.MOD
:root
   order TX TY TZ RX RY RZ
   axis XYZ
   position 0 0 0  
   orientation 0 0 0 
:bonedata
  begin
     id 1 
     name lhipjoint
     direction 0.606768 -0.715223 0.346827 
     length 2.41543 
     axis 0 0 0  XYZ
  end
  begin
     id 2 
     name lfemur
     direction 0.34202 -0.939693 0  
     length 7.2778  
     axis 0 0 20  XYZ
    dof rx ry rz
    limits (-160.0 20.0)
           (-70.0 70.0)
           (-60.0 70.0)
  end
  begin
     id 3 
     name ltibia
     direction 0.34202 -0.939693 0   
     length 7.61811   
     axis 0 0 20   XYZ
    dof rx
    limits (-10.0 170.0)
  end
  begin
     id 4 
     name lfoot
     direction 0.0823924 -0.226371 0.97055   
     length 2.33618   
     axis -90 7.62852e-016 20   XYZ
    dof rx rz
    limits (-45.0 90.0)
           (-70.0 20.0)
  end
  begin
     id 5 
     name ltoes
     direction 1.53554e-011 -4.21934e-011 1   
     length 1.17015   
     axis -90 7.62852e-016 20   XYZ
    dof rx
    limits (-90.0 20.0)
  end
  begin
     id 6 
     name rhipjoint
     direction -0.6077 -0.714582 0.346516   
     length 2.4176  
     axis 0 0 0  XYZ 
  end
  begin
     id 7 
     name rfemur
     direction -0.34202 -0.939693 0   
     length 7.28127   
     axis 0 0 -20   XYZ
    dof rx ry rz
    limits (-160.0 20.0)
           (-70.0 70.0)
           (-70.0 60.0)
  end
  begin
     id 8 
     name rtibia
     direction -0.34202 -0.939693 0   
     length 7.77648   
     axis 0 0 -20   XYZ
    dof rx
    limits (-10.0 170.0)
 end
 begin
     id 9 
     name rfoot
     direction -0.0809463 -0.222398 0.97159   
     length 2.37533  
     axis -90 -7.62852e-016 -20   XYZ
    dof rx rz
    limits (-45.0 90.0)
           (-20.0 70.0)
  end
  begin
     id 10 
     name rtoes
     direction -1.53568e-011 -4.21714e-011 1   
     length 1.18972   
     axis -90 -7.62852e-016 -20   XYZ
    dof rx
    limits (-90.0 20.0)
  end
  begin
     id 11 
     name lowerback
     direction 0.010968 0.991932 -0.126297   
     length 2.21698   
     axis 0 0 0   XYZ
    dof rx ry rz
    limits (-20.0 45.0)
           (-30.0 30.0)
           (-30.0 30.0)
  end
  begin
     id 12 
     name upperback
     direction 0.0167007 0.997503 -0.0686276   
     length 2.22371   
     axis 0 0 0   XYZ
    dof rx ry rz
    limits (-20.0 45.0)
           (-30.0 30.0)
           (-30.0 30.0)
  end
  begin
     id 13 
     name thorax
     direction 0.0111721 0.999885 -0.0102878   
     length 2.25242   
     axis 0 0 0   XYZ
    dof rx ry rz
    limits (-20.0 45.0)
           (-30.0 30.0)
           (-30.0 30.0)
  end
  begin
     id 14 
     name lowerneck
     direction -0.0120265 0.990428 0.137508   
     length 1.57674   
     axis 0 0 0   XYZ
    dof rx ry rz
    limits (-20.0 45.0)
           (-30.0 30.0)
           (-30.0 30.0)
  end
  begin
     id 15 
     name upperneck
     direction 0.0175669 0.998907 0.0433089   
     length 1.5618   
     axis 0 0 0   XYZ
    dof rx ry rz
    limits (-20.0 45.0)
           (-30.0 30.0)
           (-30.0 30.0)
  end
  begin
     id 16
     name head
     direction 0.00754609 0.99997 0.00185367  
     length 1.60579  
     axis 0 0 0   XYZ
    dof rx ry rz
    limits (-20.0 45.0)
           (-30.0 30.0)
           (-30.0 30.0)
  end
  begin
     id 17 
     name lclavicle
     direction 0.885866 0.429166 -0.176231  
     length 3.44967  
     axis 0 0 0   XYZ
    dof ry rz
    limits (-20.0 10.0)
           (0.0 20.0)
  end
  begin
     id 18 
     name lhumerus
     direction 1 -4.48973e-011 -1.90255e-027   
     length 5.20607   
     axis 180 -30 -90   XYZ
    dof rx ry rz
    limits (-60.0 90.0)
           (-90.0 90.0)
           (-90.0 90.0)
  end
  begin
     id 19
     name lradius
     direction 1 -4.48956e-011 9.87925e-027   
     length 3.39961   
     axis 180 -30 -90   XYZ
    dof rx
    limits (-10.0 170.0)
  end
  begin
     id 20
     name lwrist
     direction 1 -4.48985e-011 1.73247e-026   
     length 1.6998   
     axis -9.60847e-015 90 90   XYZ
    dof ry
    limits (-180.0 0.0)
 end
  begin
     id 21 
     name lhand
     direction 1 -4.48798e-011 3.46119e-026   
     length 0.519693   
     axis -2.21073e-014 90 90   XYZ
    dof rx rz
    limits (-90.0 90.0)
           (-45.0 45.0)
  end
  begin
     id 22 
     name lfingers
     direction 1 -4.48938e-011 6.92797e-026   
     length 0.41899   
     axis -4.42155e-014 90 90   XYZ
    dof rx
    limits (0.0 90.0)
  end
  begin
     id 23
     name lthumb
     direction 0.707107 -6.34952e-011 0.707107   
     length 0.601588   
     axis -90 45 6.0103e-014   XYZ
    dof rx rz
    limits (-45.0 45.0)
           (-45.0 45.0)
  end
  begin
     id 24 
     name rclavicle
     direction -0.866736 0.456792 -0.200276   
     length 3.45032  
     axis 0 0 0   XYZ 
    dof ry rz
    limits (-10.0 20.0)
           (-20.0 0.0)
  end
  begin
     id 25 
     name rhumerus
     direction -1 -4.4897e-011 8.65094e-028  
     length 5.32214   
     axis 180 30 90   XYZ
    dof rx ry rz
    limits (-90.0 60.0)
           (-90.0 90.0)
           (-90.0 90.0)
  end
  begin
     id 26 
     name rradius
     direction -1 -4.48987e-011 1.08427e-026   
     length 3.51208   
     axis 180 30 90   XYZ
    dof rx
    limits (-10.0 170.0)
  end
  begin
     id 27 
     name rwrist
     direction -1 -4.48961e-011 1.73222e-026   
     length 1.75604   
     axis -9.60847e-015 -90 -90   XYZ
    dof ry
    limits (-180.0 0.0)
  end
  begin
     id 28
     name rhand
     direction -1 -4.48895e-011 3.46314e-026   
     length 0.586681   
     axis -2.21073e-014 -90 -90   XYZ
    dof rx rz
    limits (-90.0 90.0)
           (-45.0 45.0)
  end
  begin
     id 29
     name rfingers
     direction -1 -4.48968e-011 6.92916e-026   
     length 0.472997   
     axis -4.42155e-014 -90 -90   XYZ
    dof rx
    limits (0.0 90.0)
  end
  begin
     id 30
     name rthumb
     direction -0.707107 -6.34848e-011 0.707107   
     length 0.679133   
     axis -90 -45 -6.0103e-014   XYZ
    dof rx rz
    limits (-45.0 45.0)
           (-45.0 45.0)
  end
:hierarchy
  begin
    root lhipjoint rhipjoint lowerback
    lhipjoint lfemur
    lfemur ltibia
    ltibia lfoot
    lfoot ltoes
    rhipjoint rfemur
    rfemur rtibia
    rtibia rfoot
    rfoot rtoes
    lowerback upperback
    upperback thorax
    thorax lowerneck lclavicle rclavicle
    lowerneck upperneck
    upperneck head
    lclavicle lhumerus
    lhumerus lradius
    lradius lwrist
    lwrist lhand lthumb
    lhand lfingers
    rclavicle rhumerus
    rhumerus rradius
    rradius rwrist
    rwrist rhand rthumb
    rhand rfingers
  end

#!OML:ASF H:\Dans Jumps\Project 1\Capture day 1\Session 1\subject.ASF
:FULLY-SPECIFIED
:DEGREES
41
root 0.355298 17.5999 -13.877 7.30025 -0.542233 -1.31334
lowerback -2.71837 -0.311083 -0.118075
upperback 2.69323 -0.472521 1.59098
thorax 4.31584 -0.265668 1.67806
lowerneck -13.796 0.186351 -1.81241
upperneck 29.3753 0.401298 1.13407
head 11.9 0.120404 0.793169
rclavicle 1.3418e-015 3.57812e-015
rhumerus -16.3771 -9.49465 -87.5551
rradius 24.6114
rwrist 31.1914
rhand -20.2291 -26.148
rfingers 7.12502
rthumb 6.11864 -56.0397
lclavicle 1.3418e-015 3.57812e-015
lhumerus -14.4991 -11.3954 95.2873
lradius 18.3521
lwrist 2.85939
lhand -26.1957 -4.77186
lfingers 7.12502
lthumb 0.356689 25.2076
rfemur -12.4103 -2.52403 19.1975
rtibia 19.5978
rfoot -13.5203 -2.63265
rtoes 11.665
lfemur -10.4881 7.27413 -17.9735
ltibia 16.6238
lfoot -10.1834 7.25955
ltoes -2.93593
42
root 0.35438 17.6006 -13.875 7.3408 -0.514714 -1.31198
lowerback -2.71348 -0.317086 -0.124335
upperback 2.67913 -0.480117 1.5938
thorax 4.29873 -0.269552 1.684
lowerneck -13.7863 0.183355 -1.82566
upperneck 29.2889 0.395594 1.15036
head 11.8639 0.118975 0.799987
rclavicle 4.37326e-015 -5.96354e-015
rhumerus -16.5659 -9.7473 -87.5
rradius 24.4397
rwrist 31.413
rhand -20.1781 -26.1714
rfingers 7.12502
rthumb 6.16785 -56.0617
lclavicle 4.37326e-015 -5.96354e-015
lhumerus -14.8127 -11.1541 95.3929
lradius 18.0525
lwrist 2.49444
lhand -26.1063 -4.71596
lfingers 7.12502
lthumb 0.44307 25.2633
rfemur -12.4352 -2.54779 19.2018
rtibia 19.5823
rfoot -13.5244 -2.63204
rtoes 11.6803
lfemur -10.5198 7.26601 -17.9747
ltibia 16.6058
lfoot -10.1884 7.23953
ltoes -2.91011
43
root 0.353417 17.6013 -13.8731 7.37986 -0.488544 -1.31083
lowerback -2.70866 -0.324147 -0.131361
upperback 2.66604 -0.489155 1.59783
thorax 4.28277 -0.274206 1.69153
lowerneck -13.7803 0.183568 -1.83359
upperneck 29.2035 0.395897 1.15769
head 11.8289 0.119674 0.803398
rclavicle -2.83268e-015 -2.0276e-014
rhumerus -16.7557 -10.0066 -87.4392
rradius 24.2583
rwrist 31.6421
rhand -20.1151 -26.2191
rfingers 7.12502
rthumb 6.2287 -56.1075
lclavicle -2.83268e-015 -2.0276e-014
lhumerus -15.1276 -10.9121 95.4919
lradius 17.7535
lwrist 2.12112
lhand -26.0154 -4.65504
lfingers 7.12502
lthumb 0.530853 25.324
rfemur -12.4606 -2.5727 19.2069
rtibia 19.5702
rfoot -13.529 -2.62958
rtoes 11.6875
lfemur -10.5507 7.25891 -17.9755
ltibia 16.5893
lfoot -10.1926 7.22068
ltoes -2.88393
44
root 0.352353 17.6019 -13.8713 7.41824 -0.465276 -1.3099
lowerback -2.70332 -0.330294 -0.137141
upperback 2.65363 -0.497 1.60099
thorax 4.26717 -0.278216 1.69754
lowerneck -13.7822 0.186043 -1.83476
upperneck 29.1252 0.400185 1.15715
head 11.7984 0.121878 0.803356
rclavicle 3.03147e-015 -7.95139e-016
rhumerus -16.9437 -10.2842 -87.3738
rradius 24.0628
rwrist 31.8835
rhand -20.0486 -26.2725
rfingers 7.12502
rthumb 6.29285 -56.159
lclavicle 3.03147e-015 -7.95139e-016
lhumerus -15.4435 -10.6834 95.5833
lradius 17.4587
lwrist 1.7464
lhand -25.9262 -4.59418
lfingers 7.12502
lthumb 0.617011 25.3847
rfemur -12.4892 -2.59255 19.2125
rtibia 19.5624
rfoot -13.5331 -2.63041
rtoes 11.6916
lfemur -10.5827 7.25257 -17.9761
ltibia 16.5752
lfoot -10.1945 7.20459
ltoes -2.86757
45
root 0.351255 17.6024 -13.8696 7.45483 -0.44549 -1.307
lowerback -2.69727 -0.335344 -0.143586
upperback 2.6414 -0.503305 1.60303
thorax 4.2513 -0.281461 1.70287
lowerneck -13.7868 0.189695 -1.83459
upperneck 29.0528 0.406728 1.15374
head 11.7709 0.124846 0.802393
rclavicle 2.78299e-015 7.15625e-015
rhumerus -17.1309 -10.5825 -87.3016
rradius 23.8543
rwrist 32.1462
rhand -19.9754 -26.3326
rfingers 7.12502
rthumb 6.36352 -56.217
lclavicle 2.78299e-015 7.15625e-015
lhumerus -15.7596 -10.4791 95.6697
lradius 17.1678
lwrist 1.38288
lhand -25.8259 -4.53185
lfingers 7.12502
lthumb 0.713879 25.4467
rfemur -12.519 -2.6123 19.216
rtibia 19.5593
rfoot -13.5381 -2.62946
rtoes 11.6898
lfemur -10.6138 7.24617 -17.9787
ltibia 16.5646
lfoot -10.1974 7.19287
ltoes -2.86327
46
root 0.350008 17.6028 -13.868 7.49092 -0.429852 -1.30471
lowerback -2.69241 -0.338256 -0.14878
upperback 2.63069 -0.506813 1.60431
thorax 4.23758 -0.283278 1.70689
lowerneck -13.7977 0.193004 -1.83375
upperneck 28.9884 0.413285 1.14849
head 11.7477 0.127631 0.800732
rclavicle 2.03754e-015 -1.03368e-014
rhumerus -17.3127 -10.905 -87.2221
rradius 23.6311
rwrist 32.4331
rhand -19.9062 -26.3814
rfingers 7.12502
rthumb 6.43037 -56.2638
lclavicle 2.03754e-015 -1.03368e-014
lhumerus -16.0724 -10.2918 95.7487
lradius 16.8828
lwrist 1.01932
lhand -25.7086 -4.46343
lfingers 7.12502
lthumb 0.827195 25.5147
rfemur -12.5523 -2.62551 19.2206
rtibia 19.5612
rfoot -13.5444 -2.63165
rtoes 11.6874
lfemur -10.6463 7.24167 -17.9804
ltibia 16.5576
lfoot -10.2006 7.18312
ltoes -2.86225
47
root 0.34862 17.6031 -13.8664 7.52521 -0.418863 -1.30333
lowerback -2.68846 -0.339072 -0.152701
upperback 2.62071 -0.507575 1.60492
thorax 4.22504 -0.283687 1.70967
lowerneck -13.8088 0.195792 -1.83398
upperneck 28.9316 0.419237 1.1437
head 11.7277 0.130044 0.799405
rclavicle 5.2181e-015 -1.53064e-014
rhumerus -17.4908 -11.2543 -87.135
rradius 23.3944
rwrist 32.7454
rhand -19.8469 -26.4118
rfingers 7.12502
rthumb 6.48758 -56.2924
lclavicle 5.2181e-015 -1.53064e-014
lhumerus -16.3829 -10.12 95.8204
lradius 16.6049
lwrist 0.657481
lhand -25.5746 -4.39705
lfingers 7.12502
lthumb 0.956656 25.5806
rfemur -12.5871 -2.63231 19.2259
rtibia 19.5684
rfoot -13.5519 -2.63523
rtoes 11.6852
lfemur -10.6777 7.23894 -17.9807
ltibia 16.5534
lfoot -10.2035 7.17659
ltoes -2.87148
